<?xml version="1.0" standalone="no"?>
<!DOCTYPE svg PUBLIC "-//W3C//DTD SVG 20010904//EN"
 "http://www.w3.org/TR/2001/REC-SVG-20010904/DTD/svg10.dtd">
<svg version="1.0" xmlns="http://www.w3.org/2000/svg"
 width="150.000000pt" height="150.000000pt" viewBox="0 0 150.000000 150.000000"
 preserveAspectRatio="xMidYMid meet">

<g transform="translate(0.000000,150.000000) scale(0.100000,-0.100000)"
fill="#000000" stroke="none">
<path d="M0 750 l0 -750 750 0 750 0 0 371 c0 338 -1 370 -16 358 -12 -10 -14
-24 -9 -65 7 -55 -19 -179 -36 -169 -4 3 -9 -5 -11 -17 -2 -13 -9 -22 -16 -20
-8 1 -11 -2 -7 -8 3 -6 11 -7 17 -4 6 4 -2 -17 -18 -47 -16 -30 -31 -52 -34
-50 -10 9 -50 -20 -50 -35 0 -12 5 -10 20 7 31 38 23 14 -12 -36 -17 -25 -38
-45 -45 -45 -8 0 -17 -9 -21 -19 -8 -22 -110 -99 -171 -130 -28 -15 -42 -18
-47 -9 -5 7 -3 8 6 3 9 -5 11 -4 6 4 -10 15 -27 4 -20 -13 3 -8 -4 -16 -18
-20 -13 -3 -45 -12 -71 -21 -26 -8 -45 -10 -42 -5 4 6 13 10 21 10 8 0 13 3
11 7 -2 5 5 17 16 27 16 15 19 16 14 3 -4 -11 0 -15 13 -14 15 1 16 5 9 19
-12 22 -1 47 12 27 4 -7 11 -10 15 -6 4 3 1 13 -6 22 -10 12 -10 15 0 15 7 0
19 -8 27 -17 13 -17 13 -16 4 3 -12 25 4 57 18 35 5 -8 11 -9 15 -3 3 6 0 12
-6 15 -10 4 -10 7 0 18 11 12 14 12 21 0 5 -8 11 -9 15 -3 3 6 0 12 -6 15 -7
2 -10 8 -6 12 4 4 16 2 25 -6 16 -13 17 -12 5 3 -11 14 -8 22 23 57 l37 40 -2
441 c-1 352 2 440 12 440 9 0 9 3 -2 10 -13 9 -13 10 0 10 11 1 8 6 -9 20 -12
11 -28 17 -34 13 -6 -4 -3 -9 9 -13 18 -7 19 -22 16 -469 l-2 -461 -125 0
-125 0 0 51 0 50 -34 -35 c-54 -58 -136 -90 -231 -90 -121 -1 -206 37 -261
115 -55 80 -58 101 -64 427 l-5 303 -42 -41 c-24 -22 -43 -45 -43 -50 0 -6 -6
-10 -12 -10 -7 -1 -26 -19 -43 -40 -16 -21 -33 -39 -37 -40 -8 0 -67 -60 -88
-89 -18 -26 -29 -27 -29 -3 0 9 -1 24 -2 32 -5 34 1 71 11 65 7 -4 9 3 4 22
-6 28 -6 28 10 6 9 -12 13 -30 10 -40 -5 -15 -4 -15 5 -3 13 18 15 63 2 56
-18 -11 -20 25 -4 59 16 33 33 46 33 26 0 -5 9 -11 20 -14 26 -7 26 13 0 36
-13 11 -18 22 -13 30 5 6 19 29 32 49 12 21 27 35 32 32 5 -3 9 2 9 10 0 8 5
18 12 22 7 5 8 3 3 -5 -5 -9 -1 -9 14 1 25 16 28 30 4 21 -15 -6 -15 -4 2 12
11 11 24 24 28 30 5 6 7 3 4 -7 -4 -10 1 -18 14 -21 14 -4 18 -2 11 6 -13 18
-9 42 8 42 8 0 15 5 15 12 0 6 20 25 45 42 33 22 48 27 62 20 10 -5 18 -14 18
-19 0 -6 6 -10 14 -10 9 0 12 7 9 20 -3 11 -9 20 -14 20 -20 0 -7 17 26 33 34
16 70 14 59 -4 -7 -13 38 -11 56 2 12 9 12 10 -3 5 -10 -3 -28 1 -40 10 -22
16 -22 16 6 10 17 -4 26 -3 23 2 -8 13 55 22 76 11 10 -5 32 -5 55 1 l38 10
-42 -5 c-23 -3 -44 -1 -48 4 -3 6 14 12 37 14 24 2 -118 4 -314 5 l-358 2 0
-750z m17 68 c-2 -13 -4 -5 -4 17 -1 22 1 32 4 23 2 -10 2 -28 0 -40z m1470
-150 c-3 -7 -5 -2 -5 12 0 14 2 19 5 13 2 -7 2 -19 0 -25z"/>
<path d="M756 1491 c-3 -5 12 -13 34 -19 22 -5 42 -6 45 -2 3 5 -3 11 -12 13
-10 2 5 2 32 0 28 -2 74 -11 104 -19 42 -12 51 -18 40 -26 -10 -7 -8 -8 11 -5
17 4 48 -7 95 -31 68 -36 81 -53 62 -79 -7 -10 -3 -13 13 -13 18 0 21 4 17 21
-5 19 -4 20 11 5 9 -8 34 -30 55 -47 25 -21 34 -35 28 -43 -14 -18 -6 -61 12
-61 9 0 17 3 17 8 0 4 -3 6 -6 5 -8 -4 -27 33 -20 39 8 9 57 -38 51 -48 -3 -4
3 -14 13 -21 11 -7 36 -46 56 -85 34 -68 48 -107 26 -73 -8 12 -10 11 -10 -7
0 -25 16 -39 24 -21 3 7 4 0 1 -15 -4 -17 -2 -26 4 -23 8 5 25 -70 35 -159 1
-16 4 138 5 343 l1 372 -369 0 c-204 0 -372 -4 -375 -9z"/>
<path d="M580 1456 c0 -2 9 -6 20 -9 11 -3 18 -1 14 4 -5 9 -34 13 -34 5z"/>
<path d="M716 1449 c3 -5 -13 -7 -35 -5 -23 2 -41 0 -41 -5 0 -5 13 -9 29 -9
16 0 43 -3 60 -6 24 -5 31 -3 31 9 0 8 -11 17 -25 19 -13 3 -22 1 -19 -3z"/>
<path d="M915 1450 c-15 -6 -9 -8 23 -8 26 1 38 4 30 10 -16 9 -27 9 -53 -2z"/>
<path d="M808 1443 c6 -2 18 -2 25 0 6 3 1 5 -13 5 -14 0 -19 -2 -12 -5z"/>
<path d="M466 1424 c-11 -7 -17 -17 -13 -20 3 -4 14 1 23 10 21 22 15 28 -10
10z"/>
<path d="M868 1423 c6 -2 18 -2 25 0 6 3 1 5 -13 5 -14 0 -19 -2 -12 -5z"/>
<path d="M1055 1400 c3 -5 8 -10 11 -10 2 0 4 5 4 10 0 6 -5 10 -11 10 -5 0
-7 -4 -4 -10z"/>
<path d="M372 1381 c-11 -6 -10 -11 3 -25 20 -20 32 -21 15 -1 -6 8 -9 19 -5
25 7 12 4 12 -13 1z"/>
<path d="M1088 1383 c6 -2 18 -2 25 0 6 3 1 5 -13 5 -14 0 -19 -2 -12 -5z"/>
<path d="M1040 1369 c0 -5 5 -7 10 -4 6 3 10 8 10 11 0 2 -4 4 -10 4 -5 0 -10
-5 -10 -11z"/>
<path d="M1124 1369 c-4 -7 -3 -9 4 -5 6 3 13 2 17 -3 3 -5 -2 -14 -12 -19
-14 -9 -13 -10 9 -9 28 2 32 24 5 38 -10 6 -18 5 -23 -2z"/>
<path d="M1088 1353 c7 -3 16 -2 19 1 4 3 -2 6 -13 5 -11 0 -14 -3 -6 -6z"/>
<path d="M315 1342 c-5 -4 -10 -14 -10 -22 0 -8 -8 -14 -17 -14 -10 1 -14 -4
-11 -12 2 -7 11 -10 19 -7 10 4 12 0 7 -13 -4 -12 -3 -15 6 -10 7 5 10 14 7
22 -3 8 -1 25 4 39 10 27 10 28 -5 17z"/>
<path d="M1048 1343 c7 -3 16 -2 19 1 4 3 -2 6 -13 5 -11 0 -14 -3 -6 -6z"/>
<path d="M1193 1293 c4 -3 0 -11 -9 -18 -14 -10 -14 -12 0 -24 11 -9 16 -10
16 -2 0 6 -6 11 -12 11 -7 0 -5 5 5 11 19 11 23 29 5 29 -6 0 -8 -3 -5 -7z"/>
<path d="M1234 1283 c2 -10 9 -18 17 -18 8 0 20 -4 27 -8 25 -16 11 2 -17 22
-26 19 -29 19 -27 4z"/>
<path d="M990 1225 c0 -8 2 -15 4 -15 2 0 6 7 10 15 3 8 1 15 -4 15 -6 0 -10
-7 -10 -15z"/>
<path d="M1048 1233 c18 -2 45 -2 60 0 15 2 0 4 -33 4 -33 0 -45 -2 -27 -4z"/>
<path d="M963 1205 c0 -8 6 -16 13 -19 7 -3 10 2 7 15 -6 22 -20 26 -20 4z"/>
<path d="M196 1201 c-4 -7 -14 -10 -21 -7 -7 2 -16 -2 -19 -9 -4 -11 0 -12 19
-5 14 5 32 7 40 4 8 -4 15 -1 15 6 0 6 -4 9 -9 6 -5 -4 -11 -1 -13 6 -3 9 -6
9 -12 -1z"/>
<path d="M1140 791 l0 -420 -52 -4 -53 -3 53 -2 c48 -2 53 -4 47 -22 -4 -11
-2 -20 4 -20 8 0 11 136 11 445 0 245 -2 445 -5 445 -3 0 -5 -189 -5 -419z"/>
<path d="M1037 1193 c-3 -5 13 -7 35 -5 27 3 44 0 50 -9 8 -11 9 -11 5 1 -4
16 -81 27 -90 13z"/>
<path d="M325 1170 c-3 -6 1 -7 9 -4 18 7 21 14 7 14 -6 0 -13 -4 -16 -10z"/>
<path d="M361 1164 c0 -11 3 -14 6 -6 3 7 2 16 -1 19 -3 4 -6 -2 -5 -13z"/>
<path d="M967 1163 c-4 -3 -7 -18 -7 -32 l0 -26 15 29 c8 15 15 30 15 32 0 6
-16 5 -23 -3z"/>
<path d="M1037 1151 c-9 -11 -9 -15 1 -18 21 -8 13 -22 -15 -26 -20 -3 -15 -4
15 -6 28 0 45 -6 48 -16 7 -17 30 -20 39 -6 3 5 0 13 -6 17 -8 4 -9 3 -5 -4 4
-7 2 -12 -3 -12 -6 0 -11 7 -11 15 0 8 -8 15 -19 15 -10 0 -21 9 -24 20 -4 15
0 20 14 20 10 0 19 4 19 8 0 13 -41 8 -53 -7z"/>
<path d="M330 1140 c0 -5 4 -10 9 -10 6 0 11 -127 13 -302 3 -190 8 -312 15
-328 l11 -25 7 27 c5 18 12 25 21 21 8 -3 14 -2 13 3 -4 21 2 26 16 14 8 -7
13 -15 11 -19 -2 -3 18 -4 45 -3 36 3 53 10 64 25 8 12 15 17 15 12 0 -15 -13
-31 -35 -43 -11 -6 -14 -12 -7 -12 19 0 52 38 52 60 0 11 -9 28 -19 37 -15 13
-17 20 -8 34 13 20 -5 49 -31 49 -8 0 -13 2 -10 5 13 13 58 -8 58 -26 0 -10 5
-19 10 -19 6 0 10 -4 10 -10 0 -5 -8 -7 -17 -4 -17 5 -17 5 0 -9 10 -9 17 -28
17 -51 0 -28 5 -39 23 -47 21 -9 20 -9 -6 -6 -21 3 -25 1 -17 -9 8 -9 6 -15
-7 -24 -17 -11 -17 -11 0 -6 10 3 31 6 45 7 24 0 25 1 7 9 -15 6 -8 9 28 9
l48 1 -25 24 c-15 13 -26 31 -26 40 0 10 -3 15 -7 13 -17 -11 -12 57 5 70 16
12 16 14 -2 28 -18 14 -15 19 9 16 6 -1 1 6 -9 14 -30 23 -66 20 -66 -6 0 -16
-3 -19 -12 -12 -18 14 -91 16 -83 3 10 -16 -2 -12 -21 8 -16 16 -17 16 -11 0
4 -12 0 -19 -14 -23 -14 -5 -19 -15 -19 -41 0 -30 4 -37 30 -45 17 -6 30 -15
30 -19 0 -5 -13 -2 -30 6 -16 9 -34 12 -40 9 -7 -4 -9 3 -5 22 5 21 4 24 -4
13 -15 -20 -14 -47 2 -53 10 -4 10 -7 0 -18 -11 -11 -13 -11 -13 2 -1 7 -7 1
-14 -16 -11 -23 -14 -25 -14 -10 0 11 -4 54 -8 96 -7 82 1 153 17 144 5 -4 9
4 8 17 0 13 -3 17 -6 11 -2 -7 -9 -13 -15 -13 -6 0 -9 59 -7 163 1 89 -1 172
-5 185 -7 22 -26 31 -26 12z m190 -510 c18 -12 2 -12 -25 0 -13 6 -15 9 -5 9
8 0 22 -4 30 -9z"/>
<path d="M116 1124 c-3 -9 -2 -12 5 -9 5 4 17 1 25 -6 12 -10 13 -9 8 4 -8 22
-31 29 -38 11z"/>
<path d="M1367 1133 c-4 -3 -7 -11 -7 -17 0 -6 5 -5 12 2 6 6 9 14 7 17 -3 3
-9 2 -12 -2z"/>
<path d="M1370 1086 c-12 -33 -13 -53 -1 -60 4 -3 6 7 4 22 -3 19 -2 23 5 14
7 -11 11 -8 15 9 9 35 -10 48 -23 15z"/>
<path d="M994 1065 c0 -14 4 -25 9 -25 10 0 9 38 -2 44 -5 3 -8 -5 -7 -19z"/>
<path d="M1084 1043 c1 -14 -6 -17 -31 -15 -44 5 -42 -15 1 -20 25 -3 36 1 40
12 3 8 9 21 12 28 3 6 -1 12 -9 12 -8 0 -14 -8 -13 -17z"/>
<path d="M1113 1031 c-6 -17 -7 -35 -2 -42 5 -8 9 -12 9 -9 1 3 3 22 6 43 7
44 2 47 -13 8z"/>
<path d="M1406 1047 c3 -10 9 -15 12 -12 3 3 0 11 -7 18 -10 9 -11 8 -5 -6z"/>
<path d="M73 1030 c-7 -10 -9 -21 -5 -24 4 -2 12 7 19 20 13 29 3 32 -14 4z"/>
<path d="M960 1045 c0 -5 5 -17 10 -25 5 -8 10 -10 10 -5 0 6 -5 17 -10 25 -5
8 -10 11 -10 5z"/>
<path d="M813 1018 c-13 -6 -23 -15 -23 -20 0 -7 31 8 59 29 10 7 -16 1 -36
-9z"/>
<path d="M393 998 c-1 -10 3 -18 8 -18 5 0 9 -35 8 -80 -1 -45 2 -84 5 -88 4
-4 6 37 5 90 -1 52 1 100 5 106 4 6 -1 10 -12 9 -10 0 -19 -9 -19 -19z"/>
<path d="M458 1013 c12 -2 30 -2 40 0 9 3 -1 5 -23 4 -22 0 -30 -2 -17 -4z"/>
<path d="M526 969 c6 -58 17 -84 14 -34 -3 44 -1 48 15 31 10 -10 15 -35 15
-75 0 -51 -3 -61 -20 -66 -11 -3 -24 -3 -30 0 -5 3 -10 1 -10 -4 0 -15 43 -14
58 1 7 7 12 44 12 94 0 66 -3 84 -17 95 -16 13 -17 12 -4 -3 17 -23 3 -23 -21
-1 -17 16 -18 14 -12 -38z"/>
<path d="M673 1004 c-9 -9 -13 -50 -13 -130 0 -65 2 -115 5 -113 2 3 5 52 6
109 0 58 6 110 11 117 14 18 5 34 -9 17z"/>
<path d="M733 1013 c9 -2 25 -2 35 0 9 3 1 5 -18 5 -19 0 -27 -2 -17 -5z"/>
<path d="M920 999 c23 -20 25 -29 30 -136 3 -63 2 -123 -2 -134 -9 -23 -2 -24
18 -5 11 11 11 16 1 20 -6 3 2 4 18 1 l30 -4 -26 12 c-25 12 -26 15 -28 104
-2 81 0 92 16 96 17 5 17 5 0 6 -10 0 -15 6 -12 11 3 6 1 10 -4 10 -6 0 -11 5
-11 11 0 5 5 7 12 3 7 -4 8 -3 4 4 -4 6 -13 9 -20 6 -8 -3 -17 -1 -21 5 -3 6
-12 11 -18 11 -7 -1 -1 -10 13 -21z"/>
<path d="M503 920 c0 -47 2 -66 4 -42 2 23 2 61 0 85 -2 23 -4 4 -4 -43z"/>
<path d="M986 985 c-3 -8 -2 -15 2 -15 4 0 6 -45 4 -100 -3 -69 -1 -100 7
-100 7 0 11 36 11 109 0 101 -9 143 -24 106z"/>
<path d="M694 979 c-3 -6 -1 -16 5 -22 8 -8 11 -5 11 11 0 24 -5 28 -16 11z"/>
<path d="M1080 872 c0 -63 4 -102 12 -110 17 -17 28 -15 28 6 0 13 -2 14 -9 4
-14 -22 -21 11 -21 94 0 59 3 74 15 74 8 0 15 -5 15 -12 0 -6 3 -8 7 -5 6 7
-30 47 -42 47 -3 0 -5 -44 -5 -98z"/>
<path d="M825 940 c4 -6 10 -8 15 -5 4 3 10 -5 13 -17 4 -12 8 -20 11 -17 12
12 -8 49 -26 49 -10 0 -16 -5 -13 -10z"/>
<path d="M703 860 c0 -47 2 -66 4 -42 2 23 2 61 0 85 -2 23 -4 4 -4 -43z"/>
<path d="M796 924 c-7 -19 -8 -189 -1 -182 5 4 13 198 9 198 -1 0 -5 -7 -8
-16z"/>
<path d="M40 908 c0 -9 5 -20 10 -23 13 -8 13 5 0 25 -8 13 -10 13 -10 -2z"/>
<path d="M821 906 c-12 -15 -12 -19 2 -33 21 -21 25 -16 18 21 -6 27 -7 28
-20 12z"/>
<path d="M1444 889 c-4 -7 -3 -9 4 -5 5 3 13 0 15 -6 4 -9 6 -10 6 -1 1 17
-16 25 -25 12z"/>
<path d="M551 864 c0 -11 3 -14 6 -6 3 7 2 16 -1 19 -3 4 -6 -2 -5 -13z"/>
<path d="M1463 845 c0 -8 4 -12 9 -9 4 3 8 9 8 15 0 5 -4 9 -8 9 -5 0 -9 -7
-9 -15z"/>
<path d="M830 827 c0 -9 4 -18 9 -21 5 -4 8 1 7 9 -3 21 -16 31 -16 12z"/>
<path d="M871 824 c0 -11 3 -14 6 -6 3 7 2 16 -1 19 -3 4 -6 -2 -5 -13z"/>
<path d="M1122 815 c0 -16 2 -22 5 -12 2 9 2 23 0 30 -3 6 -5 -1 -5 -18z"/>
<path d="M1441 824 c0 -11 3 -14 6 -6 3 7 2 16 -1 19 -3 4 -6 -2 -5 -13z"/>
<path d="M1460 806 c0 -8 5 -18 10 -21 6 -3 10 3 10 14 0 12 -4 21 -10 21 -5
0 -10 -6 -10 -14z"/>
<path d="M417 780 c-3 -13 -4 -26 -2 -29 3 -2 5 1 5 8 0 8 10 5 26 -8 15 -12
41 -21 61 -21 20 0 32 -4 28 -10 -3 -5 1 -10 10 -10 36 0 6 25 -36 30 -52 6
-68 15 -78 43 -8 20 -8 20 -14 -3z"/>
<path d="M1442 770 c0 -19 2 -27 5 -17 2 9 2 25 0 35 -3 9 -5 1 -5 -18z"/>
<path d="M680 765 c0 -9 6 -12 15 -9 8 4 15 7 15 9 0 2 -7 5 -15 9 -9 3 -15 0
-15 -9z"/>
<path d="M871 768 c-3 -43 25 -61 59 -37 13 9 13 10 0 8 -35 -4 -49 2 -53 24
-2 13 -5 15 -6 5z"/>
<path d="M566 751 c-4 -5 -2 -19 2 -32 l9 -23 5 22 c4 12 2 20 -3 16 -5 -3 -9
-1 -9 5 0 5 6 12 13 14 9 4 9 6 0 6 -6 1 -14 -3 -17 -8z"/>
<path d="M655 740 c-3 -5 -13 -7 -23 -4 -14 5 -14 4 -3 -4 15 -11 41 -5 41 9
0 12 -7 11 -15 -1z"/>
<path d="M700 740 c0 -5 7 -10 15 -10 8 0 15 -7 15 -15 0 -8 5 -15 10 -15 16
0 12 15 -8 33 -21 19 -32 22 -32 7z"/>
<path d="M1073 744 c-8 -4 -9 -13 -3 -29 5 -12 6 -27 2 -31 -4 -5 2 -1 14 9
11 9 24 14 28 10 4 -4 4 0 0 10 -7 20 -21 22 -27 5 -2 -7 -2 -3 0 10 2 12 2
22 1 21 -2 0 -8 -3 -15 -5z"/>
<path d="M436 728 c5 -8 1 -9 -12 -4 -10 4 -15 4 -11 0 4 -4 1 -14 -6 -22 -10
-13 -9 -14 1 -8 7 4 20 2 30 -6 15 -12 16 -11 4 4 -11 14 -10 18 4 26 15 8 15
9 0 15 -12 5 -15 3 -10 -5z"/>
<path d="M1023 733 c-19 -7 -16 -30 5 -38 13 -5 14 -4 5 6 -10 10 -9 15 5 25
17 13 9 17 -15 7z"/>
<path d="M780 720 c0 -5 5 -10 10 -10 6 0 10 5 10 10 0 6 -4 10 -10 10 -5 0
-10 -4 -10 -10z"/>
<path d="M991 718 c-1 -11 -9 -18 -20 -18 -11 0 -23 -5 -27 -11 -4 -8 1 -9 17
-4 32 10 42 20 36 37 -4 9 -6 7 -6 -4z"/>
<path d="M723 687 c7 -5 0 -6 -18 -3 -18 4 -25 3 -17 -2 10 -7 10 -11 -3 -22
-8 -7 -15 -21 -15 -32 0 -10 -4 -17 -10 -13 -18 11 13 -60 34 -77 25 -21 54
-22 93 -6 15 6 31 11 35 10 4 -1 5 4 2 11 -2 7 0 24 6 38 8 21 9 18 8 -21 -2
-41 0 -45 21 -48 19 -3 21 -6 10 -13 -9 -5 -10 -9 -2 -9 19 0 43 42 42 75 l-2
30 -7 -35 -7 -35 -2 42 c0 23 4 45 9 48 6 3 10 1 10 -6 0 -7 7 -4 16 7 15 18
15 18 10 -12 -3 -17 1 -43 10 -58 16 -32 17 -37 7 -34 -18 5 -53 -24 -53 -43
0 -16 -4 -19 -22 -14 -22 7 -22 6 -4 -8 11 -8 28 -12 39 -9 11 3 14 7 8 12
-19 11 28 45 57 43 24 -2 25 -2 7 6 -30 14 3 13 42 -1 30 -11 35 -10 61 15 16
15 31 24 35 20 4 -3 7 -1 7 5 0 16 -18 24 -23 10 -3 -9 -9 -7 -20 7 -9 11 -11
22 -6 23 28 11 -10 88 -47 95 -32 6 -84 -10 -84 -26 -1 -7 -7 2 -15 18 -7 17
-14 25 -14 20 -1 -6 -14 -11 -31 -11 -16 -1 -27 2 -24 7 3 5 1 9 -4 9 -12 0
-22 -24 -23 -58 -1 -25 -2 -24 -20 13 -10 22 -19 35 -19 28 0 -7 -7 -10 -16
-6 -9 3 -12 8 -5 12 5 4 -8 6 -29 6 -24 0 -34 -3 -27 -8z m42 -82 c0 -23 -5
-31 -22 -33 -19 -3 -23 1 -23 26 0 33 8 44 30 40 9 -2 15 -14 15 -33z m259 27
c2 -4 -4 -8 -14 -8 -10 0 -16 4 -14 8 3 4 9 8 14 8 5 0 11 -4 14 -8z m-2 -64
c-7 -7 -12 -8 -12 -2 0 14 12 26 19 19 2 -3 -1 -11 -7 -17z m48 -43 c-7 -8
-19 -15 -27 -15 -10 0 -8 6 8 19 27 22 38 19 19 -4z"/>
<path d="M737 623 c-13 -12 -7 -43 8 -43 8 0 15 8 15 18 0 15 -2 15 -11 2 -9
-12 -10 -11 -6 8 5 23 4 26 -6 15z"/>
<path d="M820 680 c0 -11 2 -20 4 -20 2 0 6 9 9 20 3 11 1 20 -4 20 -5 0 -9
-9 -9 -20z"/>
<path d="M1440 690 c0 -5 5 -10 10 -10 6 0 10 5 10 10 0 6 -4 10 -10 10 -5 0
-10 -4 -10 -10z"/>
<path d="M381 670 c-10 -66 -10 -75 0 -57 6 10 8 30 6 45 -2 15 -5 20 -6 12z"/>
<path d="M410 660 c0 -11 2 -20 4 -20 2 0 6 9 9 20 3 11 1 20 -4 20 -5 0 -9
-9 -9 -20z"/>
<path d="M1091 654 c0 -11 3 -14 6 -6 3 7 2 16 -1 19 -3 4 -6 -2 -5 -13z"/>
<path d="M1115 660 c-3 -5 -3 -15 1 -21 3 -6 0 -15 -7 -20 -7 -4 -10 -11 -6
-15 11 -11 20 3 22 36 2 32 0 36 -10 20z"/>
<path d="M1441 638 c-1 -21 15 -32 25 -17 4 7 3 9 -4 5 -6 -3 -13 2 -15 11 -4
16 -5 16 -6 1z"/>
<path d="M1452 580 c0 -14 2 -19 5 -12 2 6 2 18 0 25 -3 6 -5 1 -5 -13z"/>
<path d="M780 514 l-25 -14 24 0 c16 0 21 -4 17 -15 -3 -8 -1 -15 5 -15 7 0 9
10 5 24 -4 15 -1 26 7 29 6 3 8 5 2 5 -5 0 -21 -6 -35 -14z"/>
<path d="M1101 511 c-8 -5 -11 -16 -8 -25 7 -19 23 -21 33 -4 5 7 3 8 -6 3 -9
-5 -10 -2 -5 14 7 23 6 24 -14 12z"/>
<path d="M395 490 c-3 -6 1 -7 9 -4 18 7 21 14 7 14 -6 0 -13 -4 -16 -10z"/>
<path d="M445 480 c-3 -5 -15 -10 -26 -10 -12 0 -17 -4 -14 -11 4 -6 13 -8 20
-5 8 3 19 -2 26 -10 14 -17 12 -19 -18 -28 -18 -6 -22 -4 -17 7 5 15 -13 34
-23 24 -7 -7 32 -70 54 -88 13 -11 15 -11 9 -1 -4 7 -3 19 3 25 10 13 8 68 -4
86 -3 5 3 12 12 14 16 4 16 5 1 6 -9 0 -20 -3 -23 -9z m13 -82 c-2 -5 -8 -9
-13 -9 -5 0 -11 4 -13 9 -1 5 4 9 13 9 9 0 14 -4 13 -9z"/>
<path d="M664 475 c-20 -15 -11 -18 20 -6 11 4 15 10 9 14 -5 3 -19 0 -29 -8z"/>
<path d="M835 480 c-3 -5 -1 -10 4 -10 6 0 11 5 11 10 0 6 -2 10 -4 10 -3 0
-8 -4 -11 -10z"/>
<path d="M493 470 c-34 -14 -28 -21 7 -9 17 6 30 13 30 15 0 6 -12 4 -37 -6z"/>
<path d="M1015 469 c-16 -7 -13 -8 13 -5 19 3 36 7 40 10 9 9 -31 6 -53 -5z"/>
<path d="M618 463 c7 -3 16 -2 19 1 4 3 -2 6 -13 5 -11 0 -14 -3 -6 -6z"/>
<path d="M940 433 c0 -21 3 -24 9 -14 5 8 7 20 4 28 -8 21 -13 15 -13 -14z"/>
<path d="M1360 436 c0 -8 5 -18 10 -21 6 -3 10 -13 10 -21 0 -8 -4 -13 -9 -9
-5 3 -12 1 -15 -4 -3 -5 0 -11 8 -14 8 -3 18 5 25 19 9 20 7 28 -9 44 -15 15
-20 16 -20 6z"/>
<path d="M883 413 c0 -9 4 -10 14 -2 7 6 13 12 13 14 0 1 -6 2 -13 2 -8 0 -14
-6 -14 -14z"/>
<path d="M940 362 l0 -42 93 2 92 2 -86 3 -86 4 -1 30 c-1 48 -12 48 -12 1z"/>
<path d="M483 368 c7 -4 24 -8 38 -8 31 0 46 -25 21 -35 -37 -15 45 -29 159
-26 25 1 36 6 36 16 0 8 -4 15 -9 15 -4 0 -8 -4 -8 -10 0 -6 -32 -10 -76 -10
-48 0 -73 4 -69 10 3 6 -1 17 -9 26 -9 9 -14 19 -12 22 2 4 -16 7 -39 7 -24 0
-39 -3 -32 -7z"/>
<path d="M590 367 c14 -7 25 -18 25 -24 0 -23 19 -14 22 11 3 22 0 24 -34 24
-36 0 -37 0 -13 -11z"/>
<path d="M707 372 c-9 -2 -17 -7 -17 -11 0 -11 48 -12 55 -1 3 6 13 10 21 10
8 0 13 -4 10 -9 -3 -4 6 -6 19 -3 47 8 35 20 -18 18 -30 0 -61 -2 -70 -4z"/>
<path d="M836 361 c-10 -11 -24 -17 -32 -14 -8 3 -14 0 -14 -7 0 -7 -8 -9 -22
-5 -18 5 -20 4 -8 -4 12 -9 13 -11 1 -11 -8 0 -12 -3 -8 -6 9 -9 94 34 101 51
7 20 3 19 -18 -4z"/>
<path d="M1310 355 c-20 -24 -6 -28 15 -5 10 11 13 20 8 20 -6 0 -16 -7 -23
-15z"/>
<path d="M484 335 c11 -8 24 -15 30 -15 5 0 1 7 -10 15 -10 8 -23 14 -29 14
-5 0 -1 -6 9 -14z"/>
<path d="M1283 305 c0 -8 5 -15 10 -15 5 0 6 -7 3 -16 -6 -15 -4 -15 10 -3 10
8 12 15 5 17 -6 2 -11 10 -11 18 0 8 -4 14 -8 14 -5 0 -9 -7 -9 -15z"/>
<path d="M1141 231 c-7 -5 -9 -11 -5 -14 5 -3 15 1 22 9 14 16 5 18 -17 5z"/>
<path d="M1180 220 c0 -11 5 -20 10 -20 6 0 10 -4 10 -10 0 -14 -27 -12 -33 3
-3 8 -12 5 -28 -10 -13 -13 -18 -23 -12 -23 7 0 15 5 18 10 10 16 25 12 18 -5
-4 -12 2 -11 30 5 19 12 41 29 49 38 12 16 11 16 -6 2 -15 -12 -20 -12 -23 -2
-3 6 -9 10 -14 7 -5 -4 -6 1 -3 9 3 9 1 16 -5 16 -6 0 -11 -9 -11 -20z"/>
<path d="M1110 140 c0 -5 5 -10 10 -10 6 0 10 5 10 10 0 6 -4 10 -10 10 -5 0
-10 -4 -10 -10z"/>
<path d="M1068 128 c15 -15 16 -32 2 -23 -5 3 -10 1 -10 -4 0 -14 3 -14 34 1
l26 11 -26 14 c-32 16 -42 17 -26 1z"/>
</g>
</svg>
